<?xml version="1.0" standalone="no"?>
<!DOCTYPE svg PUBLIC "-//W3C//DTD SVG 20010904//EN"
 "http://www.w3.org/TR/2001/REC-SVG-20010904/DTD/svg10.dtd">
<svg version="1.0" xmlns="http://www.w3.org/2000/svg"
 width="400.000000pt" height="400.000000pt" viewBox="0 0 400.000000 400.000000"
 preserveAspectRatio="xMidYMid meet">
<metadata>
Created by potrace 1.11, written by Peter Selinger 2001-2013
</metadata>
<g transform="translate(0.000000,400.000000) scale(0.100000,-0.100000)"
fill="#000000" stroke="none">
<path d="M2780 3941 c-64 -46 -65 -46 -41 -13 30 42 16 64 -22 36 -34 -26 -70
-87 -98 -164 -25 -72 -126 -269 -209 -410 -5 -8 -26 -44 -46 -80 -36 -62 -114
-169 -157 -218 -14 -14 -23 -18 -27 -11 -4 6 14 31 41 56 113 105 164 256 118
347 -29 56 -95 102 -174 121 -16 3 -95 8 -175 10 -162 4 -212 -8 -260 -65 -14
-17 -41 -45 -60 -62 -76 -71 -121 -124 -137 -160 -13 -28 -26 -41 -52 -49 -20
-6 -49 -17 -66 -24 -16 -7 -60 -25 -97 -40 -81 -33 -153 -77 -167 -103 -13
-25 6 -52 65 -93 43 -29 245 -133 340 -174 l41 -17 -12 -36 c-22 -62 18 -152
67 -152 13 0 18 -8 19 -27 0 -16 2 -44 4 -63 2 -19 5 -78 6 -131 2 -95 -10
-145 -56 -254 -7 -16 -36 -93 -65 -170 -28 -77 -56 -149 -60 -160 -13 -29 -86
-252 -100 -303 -18 -70 -21 -109 -7 -120 11 -9 188 -68 272 -91 l41 -11 18
-127 c11 -71 21 -143 23 -161 4 -29 2 -32 -24 -33 -44 -1 -77 -9 -83 -19 -3
-5 -5 -33 -4 -62 2 -58 11 -306 20 -578 5 -172 9 -218 17 -227 7 -7 208 -82
249 -93 30 -9 63 -5 165 16 70 14 138 28 151 30 54 10 74 14 202 39 74 15 146
29 160 31 78 14 176 38 180 45 6 9 6 36 -4 299 -3 91 -9 244 -12 340 -3 96
-10 180 -15 186 -5 7 -40 17 -77 24 -37 7 -76 15 -87 17 -69 15 -100 18 -187
17 l-96 -1 -6 31 c-12 56 -30 70 -91 70 -64 0 -98 -25 -112 -82 -11 -48 -36
-57 -29 -11 8 51 14 97 21 174 4 39 12 75 18 81 7 6 42 19 78 28 36 10 95 28
130 41 l64 23 -2 75 c-3 131 -59 319 -192 650 -75 187 -74 180 -56 287 2 8 6
40 10 70 10 82 13 98 35 185 12 44 23 88 25 97 8 38 39 88 126 208 157 216
157 217 285 565 61 168 82 204 131 227 29 14 52 34 68 62 24 42 50 127 44 144
-2 6 -33 -11 -69 -37z"/>
</g>
</svg>
